<svg width="400" height="400" viewBox="0 0 400 400" fill="none" xmlns="http://www.w3.org/2000/svg">
<g clip-path="url(#clip0)">
<path fill-rule="evenodd" clip-rule="evenodd" d="M200.001 92.0001C173.861 91.9734 148.565 101.277 128.648 118.244C108.731 135.21 95.4933 158.731 91.308 184.59C87.1226 210.449 92.2629 236.957 105.808 259.363C119.353 281.769 140.416 298.609 165.225 306.865C170.762 307.88 172.72 304.428 172.72 301.518C172.72 298.608 172.72 291.976 172.72 282.773C141.996 289.473 135.513 267.952 135.513 267.952C133.475 261.282 129.145 255.552 123.291 251.778C113.365 245.011 124.101 245.011 124.101 245.011C127.581 245.503 130.903 246.783 133.816 248.753C136.729 250.722 139.157 253.331 140.915 256.38C142.409 259.095 144.424 261.488 146.843 263.421C149.262 265.354 152.038 266.789 155.012 267.644C157.986 268.499 161.099 268.757 164.172 268.404C167.246 268.05 170.22 267.092 172.923 265.584C173.346 260.016 175.741 254.784 179.675 250.831C155.231 248.056 129.571 238.582 129.571 196.692C129.403 185.749 133.441 175.16 140.848 167.118C137.549 157.603 137.934 147.194 141.928 137.951C141.928 137.951 151.179 134.973 172.18 149.252C190.213 144.29 209.248 144.29 227.281 149.252C248.282 134.973 257.465 137.951 257.465 137.951C261.515 147.096 261.997 157.431 258.816 166.915C266.223 174.957 270.261 185.546 270.093 196.489C270.093 238.852 244.365 248.124 219.853 250.628C222.482 253.276 224.511 256.459 225.804 259.962C227.098 263.465 227.624 267.205 227.349 270.93C227.349 285.683 227.349 297.593 227.349 301.18C227.349 304.767 229.307 307.541 234.912 306.459C259.437 297.985 280.186 281.098 293.492 258.779C306.797 236.46 311.804 210.146 307.627 184.486C303.45 158.827 290.358 135.472 270.664 118.549C250.97 101.625 225.942 92.222 200.001 92.0001Z" fill="white"/>
</g>
<defs>
<clipPath id="clip0">
<rect width="220" height="215" fill="white" transform="translate(90 92)"/>
</clipPath>
</defs>
</svg>
